HIERARCHY
ROOT Hips
{
	OFFSET -14.64140 90.27770 -84.91600
	CHANNELS 6 Xposition Yposition Zposition Zrotation Xrotation Yrotation
	JOINT Spine
	{
		OFFSET 0.00000 13.20850 -1.60436
		CHANNELS 3 Zrotation Xrotation Yrotation
		JOINT Spine1
		{
			OFFSET 0.00000 8.61716 0.00000
			CHANNELS 3 Zrotation Xrotation Yrotation
			JOINT Spine2
			{
				OFFSET 0.00000 8.61717 0.00000
				CHANNELS 3 Zrotation Xrotation Yrotation
				JOINT Spine3
				{
					OFFSET 0.00000 8.61717 0.00000
					CHANNELS 3 Zrotation Xrotation Yrotation
					JOINT Neck
					{
						OFFSET 0.00000 11.07920 1.10792
						CHANNELS 3 Zrotation Xrotation Yrotation
						JOINT Neck1
						{
							OFFSET 0.00000 7.08032 0.00000
							CHANNELS 3 Zrotation Xrotation Yrotation
							JOINT Head
							{
								OFFSET 0.00000 7.08031 0.00000
								CHANNELS 3 Zrotation Xrotation Yrotation
								End site
								{
									OFFSET 0.00000 0.00000 0.00000
								}
							}
						}
					}
					JOINT RightShoulder
					{
						OFFSET -0.01000 7.91373 5.19711
						CHANNELS 3 Zrotation Xrotation Yrotation
						JOINT RightArm
						{
							OFFSET -18.41580 0.00000 0.00000
							CHANNELS 3 Zrotation Xrotation Yrotation
							JOINT RightForeArm
							{
								OFFSET -29.11090 0.00000 0.00000
								CHANNELS 3 Zrotation Xrotation Yrotation
								JOINT RightHand
								{
									OFFSET -24.65040 0.00000 0.00000
									CHANNELS 3 Zrotation Xrotation Yrotation
									JOINT RightHandThumb1
									{
										OFFSET -5.35114 -0.85590 3.97906
										CHANNELS 3 Zrotation Xrotation Yrotation
										JOINT RightHandThumb2
										{
											OFFSET -4.52789 0.00000 0.00000
											CHANNELS 3 Zrotation Xrotation Yrotation
											JOINT RightHandThumb3
											{
												OFFSET -2.46976 0.00000 0.00000
												CHANNELS 3 Zrotation Xrotation Yrotation
												End site
												{
													OFFSET 0.00000 0.00000 0.00000
												}
											}
										}
									}
									JOINT RightHandIndex1
									{
										OFFSET -14.26970 0.00000 2.88139
										CHANNELS 3 Zrotation Xrotation Yrotation
										JOINT RightHandIndex2
										{
											OFFSET -5.48836 0.00000 0.00000
											CHANNELS 3 Zrotation Xrotation Yrotation
											JOINT RightHandIndex3
											{
												OFFSET -3.01859 0.00000 0.00000
												CHANNELS 3 Zrotation Xrotation Yrotation
												End site
												{
													OFFSET 0.00000 0.00000 0.00000
												}
											}
										}
									}
									JOINT RightHandMiddle1
									{
										OFFSET -14.26970 0.00000 -0.09147
										CHANNELS 3 Zrotation Xrotation Yrotation
										JOINT RightHandMiddle2
										{
											OFFSET -6.17441 0.00000 0.00000
											CHANNELS 3 Zrotation Xrotation Yrotation
											JOINT RightHandMiddle3
											{
												OFFSET -3.56743 0.00000 0.00000
												CHANNELS 3 Zrotation Xrotation Yrotation
												End site
												{
													OFFSET 0.00000 0.00000 0.00000
												}
											}
										}
									}
									JOINT RightHandRing1
									{
										OFFSET -12.69180 0.00000 -3.06433
										CHANNELS 3 Zrotation Xrotation Yrotation
										JOINT RightHandRing2
										{
											OFFSET -5.62556 0.00000 0.00000
											CHANNELS 3 Zrotation Xrotation Yrotation
											JOINT RightHandRing3
											{
												OFFSET -3.56744 0.00000 0.00000
												CHANNELS 3 Zrotation Xrotation Yrotation
												End site
												{
													OFFSET 0.00000 0.00000 0.00000
												}
											}
										}
									}
									JOINT RightHandPinky1
									{
										OFFSET -11.11390 0.00000 -6.03719
										CHANNELS 3 Zrotation Xrotation Yrotation
										JOINT RightHandPinky2
										{
											OFFSET -4.52789 0.00000 0.00000
											CHANNELS 3 Zrotation Xrotation Yrotation
											JOINT RightHandPinky3
											{
												OFFSET -2.46976 0.00000 0.00000
												CHANNELS 3 Zrotation Xrotation Yrotation
												End site
												{
													OFFSET 0.00000 0.00000 0.00000
												}
											}
										}
									}
								}
							}
						}
					}
					JOINT LeftShoulder
					{
						OFFSET 0.01000 7.91373 5.19711
						CHANNELS 3 Zrotation Xrotation Yrotation
						JOINT LeftArm
						{
							OFFSET 18.41580 0.00000 0.00000
							CHANNELS 3 Zrotation Xrotation Yrotation
							JOINT LeftForeArm
							{
								OFFSET 29.11090 0.00000 0.00000
								CHANNELS 3 Zrotation Xrotation Yrotation
								JOINT LeftHand
								{
									OFFSET 24.65040 0.00000 0.00000
									CHANNELS 3 Zrotation Xrotation Yrotation
									JOINT LeftHandThumb1
									{
										OFFSET 5.35114 -0.85590 3.97906
										CHANNELS 3 Zrotation Xrotation Yrotation
										JOINT LeftHandThumb2
										{
											OFFSET 4.52789 0.00000 0.00000
											CHANNELS 3 Zrotation Xrotation Yrotation
											JOINT LeftHandThumb3
											{
												OFFSET 2.46977 0.00000 0.00000
												CHANNELS 3 Zrotation Xrotation Yrotation
												End site
												{
													OFFSET 0.00000 0.00000 0.00000
												}
											}
										}
									}
									JOINT LeftHandIndex1
									{
										OFFSET 14.26970 0.00000 2.88139
										CHANNELS 3 Zrotation Xrotation Yrotation
										JOINT LeftHandIndex2
										{
											OFFSET 5.48836 0.00000 0.00000
											CHANNELS 3 Zrotation Xrotation Yrotation
											JOINT LeftHandIndex3
											{
												OFFSET 3.01859 0.00000 0.00000
												CHANNELS 3 Zrotation Xrotation Yrotation
												End site
												{
													OFFSET 0.00000 0.00000 0.00000
												}
											}
										}
									}
									JOINT LeftHandMiddle1
									{
										OFFSET 14.26970 0.00000 -0.09147
										CHANNELS 3 Zrotation Xrotation Yrotation
										JOINT LeftHandMiddle2
										{
											OFFSET 6.17440 0.00000 0.00000
											CHANNELS 3 Zrotation Xrotation Yrotation
											JOINT LeftHandMiddle3
											{
												OFFSET 3.56744 0.00000 0.00000
												CHANNELS 3 Zrotation Xrotation Yrotation
												End site
												{
													OFFSET 0.00000 0.00000 0.00000
												}
											}
										}
									}
									JOINT LeftHandRing1
									{
										OFFSET 12.69180 0.00000 -3.06433
										CHANNELS 3 Zrotation Xrotation Yrotation
										JOINT LeftHandRing2
										{
											OFFSET 5.62556 0.00000 0.00000
											CHANNELS 3 Zrotation Xrotation Yrotation
											JOINT LeftHandRing3
											{
												OFFSET 3.56744 0.00000 0.00000
												CHANNELS 3 Zrotation Xrotation Yrotation
												End site
												{
													OFFSET 0.00000 0.00000 0.00000
												}
											}
										}
									}
									JOINT LeftHandPinky1
									{
										OFFSET 11.11390 0.00000 -6.03719
										CHANNELS 3 Zrotation Xrotation Yrotation
										JOINT LeftHandPinky2
										{
											OFFSET 4.52789 0.00000 0.00000
											CHANNELS 3 Zrotation Xrotation Yrotation
											JOINT LeftHandPinky3
											{
												OFFSET 2.46976 0.00000 0.00000
												CHANNELS 3 Zrotation Xrotation Yrotation
												End site
												{
													OFFSET 0.00000 0.00000 0.00000
												}
											}
										}
									}
								}
							}
						}
					}
					JOINT pCube4
					{
						OFFSET 0.00000 10.91090 1.10792
						CHANNELS 3 Zrotation Xrotation Yrotation
						End site
						{
							OFFSET 0.00000 0.00000 0.00000
						}
					}
				}
			}
		}
	}
	JOINT RightUpLeg
	{
		OFFSET -9.98441 0.00000 0.00000
		CHANNELS 3 Zrotation Xrotation Yrotation
		JOINT RightLeg
		{
			OFFSET 0.00000 -42.11790 0.00000
			CHANNELS 3 Zrotation Xrotation Yrotation
			JOINT RightFoot
			{
				OFFSET 0.00000 -45.00020 -0.00001
				CHANNELS 3 Zrotation Xrotation Yrotation
				JOINT RightForeFoot
				{
					OFFSET 0.00000 -3.74820 0.00000
					CHANNELS 3 Zrotation Xrotation Yrotation
					JOINT RightToeBase
					{
						OFFSET 0.00000 0.06325 14.43120
						CHANNELS 3 Zrotation Xrotation Yrotation
						End site
						{
							OFFSET 0.00000 0.00000 0.00000
						}
					}
				}
			}
		}
	}
	JOINT LeftUpLeg
	{
		OFFSET 9.98441 0.00000 0.00000
		CHANNELS 3 Zrotation Xrotation Yrotation
		JOINT LeftLeg
		{
			OFFSET 0.00000 -42.11800 0.00000
			CHANNELS 3 Zrotation Xrotation Yrotation
			JOINT LeftFoot
			{
				OFFSET 0.00000 -45.00070 0.00000
				CHANNELS 3 Zrotation Xrotation Yrotation
				JOINT LeftForeFoot
				{
					OFFSET 0.00000 -3.74824 0.00000
					CHANNELS 3 Zrotation Xrotation Yrotation
					JOINT LeftToeBase
					{
						OFFSET 0.00000 0.06325 14.43110
						CHANNELS 3 Zrotation Xrotation Yrotation
						End site
						{
							OFFSET 0.00000 0.00000 0.00000
						}
					}
				}
			}
		}
	}
}
MOTION
Frames: 4
Frame Time: 0.050000
0.002116697710241002 0.019610987761803367 0.03455324645413247 0.044333404266513284 0.02494658664464199 0.005828579904890842 2.6115144943289184 3.7331804204632513 -1.7934649412031438 -0.8045160388840564 3.569563013033891 0.4004649732139645 -0.7742717366301984 -1.024208206595881 0.38586688459194507 -0.6587794436053873 -0.10863047455870975 -0.40382263140064245 -0.17756505430518982 10.507733490831262 -0.4262343339184649 0.26787935321765677 -2.0786682172820017 -1.599537012567213 0.809219451613516 -19.41001006715208 -0.2476015055665423 -7.2729518635586174 2.876248273926271 -15.971779615342736 82.9618581393698 20.574057345225487 2.348835652964291 -8.36069306611249 0.44829011099028343 50.587988895859965 19.069768274552313 -0.2570001930631256 -3.131602896593417 4.519921265155318 -0.13838413088479318 -1.563342118124122 -0.02570964345365649 -0.005137884414284394 -56.24614784329694 -0.02692197417926038 0.03460552890748688 -56.23398386372184 -38.801631997374656 0.012694215744219929 0.03541269740528206 -0.045063898708187854 0.0017626565562955383 -0.018212797743431562 0.02389542883980541 0.04431386292168496 0.03637210312453328 -36.65066015536368 0.013757565622131715 -0.03989462685427055 -0.032938028761807125 0.028513030489092775 0.003906413186676775 0.029386367275271656 0.036854628917508 0.012664157304812731 -19.715975518474423 -0.006496309772624886 -0.01314070752020228 -0.0063314427051648 -0.02504206776507315 -0.010092231791839068 -0.039077546839668326 0.01859101013895779 0.005324473560880408 24.02532397772407 0.00384808260785789 0.012050924448758849 28.894408762617225 0.029966360006742482 -0.04923434313444588 28.889211408166908 0.030665883484605423 -0.035504890100774386 7.638624490911574 1.9157374183841631 13.518266429405985 -77.38812920464562 24.740934224925592 -8.473660646374277 -0.5229327991091165 -0.36055138705854756 -41.590330937056535 -19.933947954676317 -5.258833584926628 6.2273966715805695 -0.4677794454550143 0.0549788950667052 -8.107923214888627 0.0014066527286924328 -0.021814117725819305 44.55195991151536 0.031208069991183033 0.015163622991862892 44.576953959704724 12.436903743101483 0.021317806634202456 -0.017593302106380184 -0.0026165386243682076 -0.011197238460464328 -0.022729086926322337 -0.012499323598259894 -0.004748928058400635 0.025017323823927736 11.089925230974615 0.04738086344305282 0.015491416814224602 0.02676539818362388 -0.032114474180256425 0.0038856064977948407 0.00029322259556366755 0.0003985846535133855 -0.00996806184674804 4.7469680815714375 0.013136016732460199 -0.007214037717099319 -0.022384695556308478 -0.0130073184008665 0.012276622847858212 9.383132623229785e-05 0.03853847913717137 0.02153705661744301 -5.617272514548631 0.012312642520291408 -0.03549395235934422 -6.709214662486043 -0.0062560379551212675 -0.003625810212627014 -6.750701165838981 0.02236578798998278 0.011483121828770744 -0.021080033751133005 0.04698175596908054 0.04916692858391008 8.074034458203645 3.4728407035601485 -19.19056075290574 -0.04501336143102951 10.367423079018272 0.00016193465377213612 -5.581393716389039 -15.675415596410549 3.1872165290440995 -0.011889160645277789 -0.020463041594472497 0.015637331508358943 -0.010809055285361895 4.673140484760019 0.026793717557224723 12.493343634091989 -8.230565039533833 6.898335990760504 0.04649022496196619 46.40774686734617 -0.026149787637244862 -4.289352277433834 -14.747432614767066 -3.820907410161669 0.028716446663256897 0.026730913682487752 0.04875304521785669 -0.004458366554653213 -10.77446133391311 -0.02079203011274279 
0.027975704200680147 -0.014876001057034714 -0.0179804816445052 0.0032098989569756273 0.0037935695514914715 0.0032411491830893974 2.9060607658497086 3.6330925642094147 -1.815844051684808 -0.8027424392214142 3.5573285845569016 0.37135765932512765 -0.7584059179282407 -0.9991611714028369 0.48672209018749196 -0.5746105709788464 -0.05566370732631468 -0.3626785192170537 -0.15779966109678745 10.641503794890912 -0.5627782959364035 0.2868047153202702 -2.0204173344363845 -1.7384177859501373 0.8483366747777586 -19.34637694106747 -0.2354166060519501 -7.5006793340758255 2.9578170623456517 -16.18895090954745 83.20952910483894 20.66088217143629 2.431561598920054 -9.163456677032181 -0.08125105805319326 50.94766497382098 18.892456653108905 -0.3148973686722976 -3.216765496704837 4.485073320186662 -0.16327562491598888 -1.6146049766065218 -0.016056473719964007 -0.041397933338109184 -56.236220147946185 -0.024110294632397757 0.026523126639895783 -56.19926586448178 -38.773850375551675 -0.017716245372741697 0.02364889749304602 -0.042879619159177325 -0.024514762425946846 0.03340092910108754 -0.03620319902708264 0.01332732709247286 0.03812407180054105 -36.69497742659292 -0.02369011055376199 -0.004619559809630057 -0.0007280820603043461 -0.019137723067317258 0.044739826927328676 0.04339040704590589 -0.04522622361983486 -0.031087819674546973 -19.799516626230393 -0.014642987305011266 -0.03890846302571271 -0.045967542973704055 0.005163891792035863 0.0011717665451251085 -0.04574544608382696 -0.006728125763388853 -0.0013996654379835292 24.036194527280532 -0.002101011357517967 0.044106418457197594 28.82498540044828 -0.004762621824070761 0.0038208713028180896 28.875208141746423 0.002049392450575157 -0.013555748824194771 7.797598284896894 2.000617700635264 13.702866174849381 -77.49057033354902 25.131862346576494 -8.513683014876408 -0.8129920405531602 0.033855222796364756 -42.18553840140934 -20.453172604260764 -5.934022481497853 6.629169646371561 -0.48374102006434827 0.030873044865122386 -8.136431886837116 -0.041813227564543885 -0.009407062900365063 44.5485797971145 -0.021493125528329937 0.008945505073752124 44.60593706443538 12.450235496245927 0.010467314204707725 0.045909719400589626 0.02732601741378512 -0.0045612399982547505 -0.0329847411839052 0.03070858040524757 0.040699245734048956 -0.013566487123481054 11.06935127592518 -0.01963538169743726 -0.04628282521885716 0.023921535721801505 -0.04205901452466985 -0.0020808875943098873 -0.013576062792230788 -0.03850233811411678 -0.03976781123322655 4.7730243724162245 -0.023616176207871233 0.03990562947460162 0.03427581963673895 -0.007720633147153951 -0.011093890781162642 0.014052258435970836 -0.045786073185217054 -0.026264635652178625 -5.5959387055273995 0.022979192874765075 0.02126362333517548 -6.74391825001377 -0.028271253044125887 0.03127546051522571 -6.685344311292413 0.024109111007757495 0.04128783031559287 -0.018458875498765955 0.013933361900415402 -0.022395571563963854 8.091760382745818 3.528216362251937 -19.20569972544556 -0.014640491476747805 10.425515112980813 -0.000655612961387492 -5.629084723198883 -15.639302204876712 3.191229097805568 0.02537160702966228 0.03024176741246801 -0.0172680343656276 -0.006804161692724076 4.701726913930909 0.003348150972577807 12.422711376945847 -8.232947022164101 6.916404482365728 -0.00924545330106346 46.34971729232447 -0.019224688816835984 -4.30622810208606 -14.725911213116152 -3.793531588910836 -0.0036820222486034903 0.03041998929281094 -0.03376227117032779 -0.005277182073083641 -10.782576265538953 0.009735403014325466 
0.04673714548407246 -0.024091690673773855 0.010088782225359779 0.018426031960142315 0.02199836852690024 -0.03057938515023554 3.0384704673865546 3.5893641277666606 -1.8767284635613959 -0.8582706172874548 3.534628765278919 0.3948196342451701 -0.7167727325299086 -1.0022199869858022 0.514195462133735 -0.579587012490238 -0.08753774817388674 -0.3862569414054975 -0.1295058120108264 10.70454806100144 -0.5727037598567495 0.29100294740150473 -1.9645708060458924 -1.7220587853840124 0.7804344133927612 -19.130401782651393 -0.2172841723467681 -7.579943774199441 2.9053269486686357 -16.37330094398484 83.43005693894605 20.930800174857193 2.490336432151922 -9.466668078443549 -0.9763494133900322 50.32434694260899 18.647088194175193 -0.2477231163553237 -3.3539338013545947 4.518438049266609 -0.17107678968929066 -1.6160823984705839 -0.024427889170919655 -0.005607505078236168 -56.27827823314053 -0.005387631886866474 0.04300069564734285 -56.258352731966355 -38.74424288976469 -0.004367370541257919 -0.042790343165835625 -0.0145764832371905 -0.029736994255879227 0.014905675577186438 -0.01746384190873451 -0.02665835230101703 0.011533199963188053 -36.73921996121379 -0.004065321463325389 -0.019675280796878 -0.04150796139460871 -0.02394974275808804 -0.02545079285885946 -0.04100928687517242 0.006414337396321782 -0.012232025944763528 -19.74546731621751 -0.04195491858067432 0.026040888782090755 0.04179726055357989 -0.03620851215090574 -0.027492537537543812 0.03536277724419512 -0.0038560317319055533 0.003928848186950469 24.08526821314418 -0.03518821433206442 -0.0016613055496706183 28.843910305047416 -0.029981630117184802 -0.016690102302715344 28.85917390718319 0.010178245447450869 -0.04144025626684483 7.852563254584282 2.0078256106678203 13.829638352021068 -77.51936061995848 25.415498500936906 -8.451337223454836 -0.8006327500057955 -0.20923859603498962 -42.070511949717385 -20.426615837384805 -6.054347446345634 6.814095522569272 -0.5043045688624643 0.09145675420017427 -8.133519227996027 -0.023762692814115104 -0.03984951955615228 44.593721078320726 -0.023757288928758957 -0.04827529907263863 44.59858212190241 12.429713001498259 0.03488503765054644 -0.04797703092901288 -0.016980011500595388 -0.019597350036013712 0.014933898583472688 -0.0011825137872253416 -0.029142366362268256 -0.0335193812965529 11.12349966202442 0.024146153071483625 -0.020365122904196748 0.012874910581098686 -0.00987129690278302 -0.03366772308105431 0.022335418518405346 0.006741618164355985 0.03200108591422283 4.786083841874177 -0.009084065404959474 -0.033618648382630394 0.0072778794207023845 0.035733151222593726 0.03612804640466217 -0.045318967252232216 -0.005982562573757853 -0.02902000284165414 -5.58817579769643 -0.01907732609708774 -0.004671001146211095 -6.753867919473199 -0.04585902277094907 -0.021582378141471896 -6.748575773454259 -0.018430828385173143 0.047224547104178324 0.024328117324751007 -0.02890501213587567 -0.049683026840474376 8.026069775269669 3.481473729364428 -19.26233487641676 0.010213678471423305 10.405485670836784 0.02876281605464033 -5.646336896189516 -15.645415324764404 3.206577898984011 -0.008150992710776996 0.019390511056368864 0.002962538505102305 -0.04875008101940991 4.649433206032828 -0.011466182140118852 12.444212611043655 -8.206409036222562 6.850698267040864 0.030089579956972996 46.42218820656956 -0.005488236382147082 -4.290361646084639 -14.70135691542408 -3.8587027149225333 -0.0033693149405596002 0.013800195598894385 -0.008597846811153326 0.01532188196087921 -10.705440419340142 0.03589823987334749 
0.013052793367893143 -0.0077929731901372375 0.033826529104683166 0.02145866988500411 -0.038106499502568336 0.008429990290455434 3.1374764094647745 3.5174765544219055 -1.8965684984778362 -0.853334677317119 3.6021578623787684 0.4196624151983906 -0.7713215101167409 -1.0142879897678365 0.4321399439257264 -0.4915597797155134 -0.06085024154043281 -0.39073985866120714 -0.20781702082151984 10.783793821168631 -0.5505677197977664 0.28133692767681434 -1.7933557997742775 -1.671181521168223 0.8193062734693765 -19.015633371620073 -0.17273804889384728 -7.7242173740484645 2.979863384024494 -16.526995714740934 83.60983786335568 20.955463957034016 2.1093596634903635 -9.028969120872047 -1.629679929533432 48.749786929493254 18.494500684141308 -0.2359068222088756 -3.317841477200675 4.4828829354371456 -0.16541105344007082 -1.5916560232282917 -0.039249967143702255 0.030456194792412784 -56.25915255003472 0.005419144052594974 0.00452716932405812 -56.189169176485 -38.76234176475 0.048311222482832566 0.03366395288438716 -0.025222597608188266 -0.016905891447550243 -0.010451214552730688 0.024294128398049758 0.019724489043370336 0.017774141494842764 -36.69347594475551 0.008002815712463036 -0.012211244198057072 -0.045484485394258166 0.042015253919931446 -0.010873299646927962 -0.019762353447014547 0.036790796938995174 -0.04064997282776849 -19.792120988492997 -0.030757056089497144 0.026238441671948186 -0.00290190002385142 -0.03208170967223656 -0.04857225647786114 -0.030544493121898542 0.00889465616216987 -0.0498718820197258 24.0927319917239 0.0005393881255825078 -0.029822700982732642 28.883143495567108 -0.049136596331270065 0.02002107907212113 28.887664082111794 0.016179196580439533 0.020742367590585155 7.868409525682193 2.0237723261197806 13.882831849054025 -77.50001300306478 25.67031432409504 -8.075302814452282 0.11295297687375391 -1.0456994280256944 -41.285237491499544 -20.130180774729226 -5.793369386104188 6.513751105934553 -0.45699441300075255 0.07155582462730463 -8.115423174463057 0.022055778086573972 0.002273937445963073 44.58746530134777 0.04105949830644661 -0.048711618245459616 44.551404137438446 12.503880584697242 0.022632766337026072 0.0029935546681562858 -0.023787932687615285 0.00338140260204477 -0.0039060735481941575 -0.010830004683346113 -0.011890994974370949 0.013496690249590833 11.099575309903548 -0.021852103018270008 0.007258360454662228 -0.013625676543790098 0.016580680150616763 0.008054061944066082 -0.03874134285601203 0.037056999389222536 -0.0018215444495119474 4.738761206597525 0.032367928585911865 0.005907475069546386 0.0027422812478890297 -0.023092855581727564 -0.01082831365112316 0.015688503866862914 0.04195331236249755 -0.018964307396821423 -5.558256691720811 -0.04790206516474301 -0.04497560701825683 -6.70292526373896 0.021823200054018697 -0.017920747474760138 -6.757442861537393 -0.0013984300679185206 0.025192160292902187 0.03063902175784672 -0.026344256404963146 -0.001993060637902864 8.07259350811519 3.5052343370687034 -19.235132474045084 -0.028668129807315045 10.34853333576652 0.008582567277203412 -5.6626355545416125 -15.676052687251318 3.1480671242965395 0.036417720190539564 -0.0045244853370046785 0.025417025124697172 0.022966243811207133 4.686393535957811 -0.0461910907474771 12.414105862552676 -8.24195909784061 6.836165167934454 0.01890948507531983 46.36114055825563 0.009478659672526691 -4.316571663028582 -14.784703342285948 -3.82370931914241 0.028838311551847604 -0.01440927053913292 -0.016952370897577035 -0.043214593295531414 -10.7277471800805 0.02905311475951418 
